<svg width="20" height="20" viewBox="0 0 20 20" fill="none" xmlns="http://www.w3.org/2000/svg">
<path fill-rule="evenodd" clip-rule="evenodd" d="M15.834 3.95101V6.66684C16.1623 6.66684 16.4874 6.73151 16.7907 6.85714C17.094 6.98278 17.3696 7.16693 17.6017 7.39907C17.8339 7.63122 18.018 7.90682 18.1437 8.21013C18.2693 8.51345 18.334 8.83854 18.334 9.16684C18.334 9.49515 18.2693 9.82024 18.1437 10.1236C18.018 10.4269 17.8339 10.7025 17.6017 10.9346C17.3696 11.1668 17.094 11.3509 16.7907 11.4765C16.4874 11.6022 16.1623 11.6668 15.834 11.6668V14.1668C15.834 15.5402 14.2665 16.3243 13.1673 15.5002L11.4506 14.2118C10.533 13.5239 9.46458 13.0645 8.33397 12.8718V15.2418C8.33406 15.7866 8.13721 16.3131 7.77972 16.7242C7.42222 17.1352 6.92817 17.4032 6.38865 17.4788C5.84912 17.5543 5.30048 17.4322 4.84387 17.1351C4.38725 16.8379 4.05344 16.3857 3.90397 15.8618L2.59563 11.2818C2.12482 10.7258 1.81841 10.0495 1.71087 9.32893C1.60333 8.60834 1.69891 7.87204 1.98687 7.20279C2.27483 6.53354 2.74375 5.95788 3.34093 5.54051C3.9381 5.12313 4.63985 4.8806 5.3673 4.84018L7.8823 4.70018C9.11284 4.63183 10.3096 4.27224 11.374 3.65101L13.3273 2.51101C14.439 1.86351 15.834 2.66434 15.834 3.95101ZM4.69563 12.5652L5.50647 15.4043C5.54549 15.5418 5.63292 15.6604 5.75261 15.7384C5.8723 15.8164 6.01618 15.8485 6.15766 15.8287C6.29914 15.8089 6.42868 15.7386 6.52236 15.6307C6.61603 15.5228 6.66751 15.3847 6.6673 15.2418V12.7335L5.3673 12.661C5.14118 12.6474 4.91655 12.6153 4.69563 12.5652ZM14.1673 3.95101L12.2131 5.09184C11.0264 5.78494 9.70238 6.20988 8.33397 6.33684V11.186C9.82313 11.391 11.2406 11.9718 12.4506 12.8785L14.1673 14.1668V3.95101ZM6.6673 6.43684L5.45897 6.50351C4.89684 6.53455 4.36677 6.77519 3.9734 7.17794C3.58002 7.58069 3.35193 8.11628 3.33414 8.67899C3.31635 9.24169 3.51015 9.79062 3.8773 10.2174C4.24445 10.6442 4.75826 10.9179 5.3173 10.9843L5.45897 10.9968L6.6673 11.0635V6.43684ZM15.834 8.33351V10.0002C16.0464 9.99994 16.2507 9.91861 16.4051 9.7728C16.5596 9.62699 16.6525 9.42771 16.6649 9.21568C16.6774 9.00365 16.6084 8.79486 16.4721 8.63198C16.3358 8.4691 16.1424 8.36443 15.9315 8.33934L15.834 8.33351Z" fill="white"/>
</svg>
