<svg width="24" height="24" viewBox="0 0 24 24" fill="none" xmlns="http://www.w3.org/2000/svg">
<path d="M16.8006 3.30039C16.8006 3.0617 16.8954 2.83278 17.0642 2.66399C17.233 2.49521 17.4619 2.40039 17.7006 2.40039H20.7006C20.9393 2.40039 21.1682 2.49521 21.337 2.66399C21.5058 2.83278 21.6006 3.0617 21.6006 3.30039V6.30039C21.6006 6.53909 21.5058 6.768 21.337 6.93679C21.1682 7.10557 20.9393 7.20039 20.7006 7.20039C20.4619 7.20039 20.233 7.10557 20.0642 6.93679C19.8954 6.768 19.8006 6.53909 19.8006 6.30039V5.47239L14.4366 10.8364C14.2678 11.0049 14.0391 11.0996 13.8006 11.0996C13.5621 11.0996 13.3333 11.0049 13.1646 10.8364L10.2006 7.87239L5.13658 12.9364C5.05418 13.0248 4.95482 13.0957 4.84442 13.1449C4.73402 13.1941 4.61485 13.2206 4.494 13.2227C4.37316 13.2248 4.25312 13.2026 4.14106 13.1573C4.02899 13.1121 3.92719 13.0447 3.84173 12.9592C3.75627 12.8738 3.68889 12.772 3.64363 12.6599C3.59836 12.5478 3.57613 12.4278 3.57827 12.307C3.5804 12.1861 3.60685 12.0669 3.65604 11.9565C3.70523 11.8461 3.77615 11.7468 3.86458 11.6644L9.56457 5.96439C9.73332 5.79585 9.96207 5.70118 10.2006 5.70118C10.4391 5.70118 10.6678 5.79585 10.8366 5.96439L13.8006 8.92839L18.5286 4.20039H17.7006C17.4619 4.20039 17.233 4.10557 17.0642 3.93679C16.8954 3.768 16.8006 3.53909 16.8006 3.30039ZM4.50057 16.8004C4.73927 16.8004 4.96819 16.8952 5.13697 17.064C5.30575 17.2328 5.40057 17.4617 5.40057 17.7004V20.7004C5.40057 20.9391 5.30575 21.168 5.13697 21.3368C4.96819 21.5056 4.73927 21.6004 4.50057 21.6004C4.26188 21.6004 4.03296 21.5056 3.86418 21.3368C3.6954 21.168 3.60058 20.9391 3.60058 20.7004V17.7004C3.60058 17.4617 3.6954 17.2328 3.86418 17.064C4.03296 16.8952 4.26188 16.8004 4.50057 16.8004ZM10.2006 14.1004C10.2006 13.8617 10.1058 13.6328 9.93697 13.464C9.76819 13.2952 9.53927 13.2004 9.30057 13.2004C9.06188 13.2004 8.83296 13.2952 8.66418 13.464C8.4954 13.6328 8.40057 13.8617 8.40057 14.1004V20.7004C8.40057 20.9391 8.4954 21.168 8.66418 21.3368C8.83296 21.5056 9.06188 21.6004 9.30057 21.6004C9.53927 21.6004 9.76819 21.5056 9.93697 21.3368C10.1058 21.168 10.2006 20.9391 10.2006 20.7004V14.1004ZM14.1006 15.6004C14.3393 15.6004 14.5682 15.6952 14.737 15.864C14.9058 16.0328 15.0006 16.2617 15.0006 16.5004V20.7004C15.0006 20.9391 14.9058 21.168 14.737 21.3368C14.5682 21.5056 14.3393 21.6004 14.1006 21.6004C13.8619 21.6004 13.633 21.5056 13.4642 21.3368C13.2954 21.168 13.2006 20.9391 13.2006 20.7004V16.5004C13.2006 16.2617 13.2954 16.0328 13.4642 15.864C13.633 15.6952 13.8619 15.6004 14.1006 15.6004ZM19.8006 11.7004C19.8006 11.4617 19.7058 11.2328 19.537 11.064C19.3682 10.8952 19.1393 10.8004 18.9006 10.8004C18.6619 10.8004 18.433 10.8952 18.2642 11.064C18.0954 11.2328 18.0006 11.4617 18.0006 11.7004V20.7004C18.0006 20.9391 18.0954 21.168 18.2642 21.3368C18.433 21.5056 18.6619 21.6004 18.9006 21.6004C19.1393 21.6004 19.3682 21.5056 19.537 21.3368C19.7058 21.168 19.8006 20.9391 19.8006 20.7004V11.7004Z" fill="white"/>
</svg>
