<svg width="16" height="16" viewBox="0 0 16 16" fill="none" xmlns="http://www.w3.org/2000/svg">
<path d="M14.4016 3.3999C14.4016 2.84762 13.9538 2.3999 13.4016 2.3999H2.60156C2.04928 2.3999 1.60156 2.84762 1.60156 3.3999V10.9999C1.60156 11.5522 2.04928 11.9999 2.60156 11.9999H7.40156C7.73293 11.9999 8.00156 11.7313 8.00156 11.3999C8.00156 11.0685 7.73293 10.7999 7.40156 10.7999H3.88156C3.32928 10.7999 2.88156 10.3522 2.88156 9.7999V4.5999C2.88156 4.04762 3.32928 3.5999 3.88156 3.5999H12.1216C12.6738 3.5999 13.1216 4.04762 13.1216 4.5999V5.3599C13.1216 5.71337 13.4081 5.9999 13.7616 5.9999C14.115 5.9999 14.4016 5.71336 14.4016 5.3599V3.3999ZM12.4816 11.0999C12.4816 10.6028 12.8845 10.1999 13.3816 10.1999H13.8016C14.1329 10.1999 14.4016 9.93127 14.4016 9.5999C14.4016 9.26853 14.1329 8.9999 13.8016 8.9999H13.3816C12.8845 8.9999 12.4816 8.59696 12.4816 8.0999V7.8399C12.4816 7.48644 12.195 7.1999 11.8416 7.1999C11.4881 7.1999 11.2016 7.48644 11.2016 7.8399V8.0999C11.2016 8.59696 10.7986 8.9999 10.3016 8.9999H9.88156C9.55019 8.9999 9.28156 9.26853 9.28156 9.5999C9.28156 9.93127 9.55019 10.1999 9.88156 10.1999H10.3016C10.7986 10.1999 11.2016 10.6028 11.2016 11.0999V11.3599C11.2016 11.7134 11.4881 11.9999 11.8416 11.9999C12.195 11.9999 12.4816 11.7134 12.4816 11.3599V11.0999Z" fill="white"/>
</svg>
