<svg width="24" height="24" viewBox="0 0 24 24" fill="none" xmlns="http://www.w3.org/2000/svg">
<g clip-path="url(#clip0_463_147164)">
<path d="M5.14509 11.9994V7.49084C5.15848 6.60461 5.34661 5.72973 5.6987 4.91633C6.05079 4.10293 6.55992 3.367 7.19692 2.7507C7.83391 2.13441 8.58626 1.64986 9.41084 1.32483C10.2354 0.999794 11.116 0.840663 12.0022 0.856551C12.8884 0.840663 13.769 0.999794 14.5936 1.32483C15.4182 1.64986 16.1706 2.13441 16.8075 2.7507C17.4445 3.367 17.9537 4.10293 18.3058 4.91633C18.6579 5.72973 18.846 6.60461 18.8594 7.49084V11.9994M15.4308 20.9994C16.3401 20.9994 17.2122 20.6382 17.8552 19.9952C18.4982 19.3522 18.8594 18.4802 18.8594 17.5708V13.7137M15.4308 20.9994C15.4308 21.5677 15.205 22.1128 14.8032 22.5146C14.4013 22.9165 13.8563 23.1423 13.2879 23.1423H10.7165C10.1482 23.1423 9.60315 22.9165 9.20129 22.5146C8.79943 22.1128 8.57366 21.5677 8.57366 20.9994C8.57366 20.4311 8.79943 19.886 9.20129 19.4842C9.60315 19.0823 10.1482 18.8566 10.7165 18.8566H13.2879C13.8563 18.8566 14.4013 19.0823 14.8032 19.4842C15.205 19.886 15.4308 20.4311 15.4308 20.9994ZM2.57366 9.42798H4.28795C4.51527 9.42798 4.73329 9.51829 4.89404 9.67903C5.05478 9.83978 5.14509 10.0578 5.14509 10.2851V15.428C5.14509 15.6553 5.05478 15.8733 4.89404 16.0341C4.73329 16.1948 4.51527 16.2851 4.28795 16.2851H2.57366C2.119 16.2851 1.68297 16.1045 1.36148 15.783C1.03999 15.4615 0.859375 15.0255 0.859375 14.5708V11.1423C0.859375 10.6876 1.03999 10.2516 1.36148 9.93008C1.68297 9.60859 2.119 9.42798 2.57366 9.42798ZM21.4308 16.2851H19.7165C19.4892 16.2851 19.2712 16.1948 19.1104 16.0341C18.9497 15.8733 18.8594 15.6553 18.8594 15.428V10.2851C18.8594 10.0578 18.9497 9.83978 19.1104 9.67903C19.2712 9.51829 19.4892 9.42798 19.7165 9.42798H21.4308C21.8855 9.42798 22.3215 9.60859 22.643 9.93008C22.9645 10.2516 23.1451 10.6876 23.1451 11.1423V14.5708C23.1451 15.0255 22.9645 15.4615 22.643 15.783C22.3215 16.1045 21.8855 16.2851 21.4308 16.2851Z" stroke="white" stroke-linecap="round" stroke-linejoin="round"/>
</g>
<defs>
<clipPath id="clip0_463_147164">
<rect width="24" height="24" fill="white"/>
</clipPath>
</defs>
</svg>
