<svg width="24" height="24" viewBox="0 0 24 24" fill="none" xmlns="http://www.w3.org/2000/svg">
<path d="M6.00142 2.35763C6.0014 2.23987 5.96904 2.12437 5.90787 2.02375C5.84669 1.92313 5.75906 1.84124 5.65452 1.78702C5.54998 1.73281 5.43256 1.70835 5.31507 1.71632C5.19758 1.72428 5.08453 1.76437 4.98827 1.8322C3.57999 2.82391 2.74513 3.68963 2.27199 4.5262C1.7877 5.38334 1.7157 6.1522 1.7157 6.85763C1.7157 7.8262 2.17427 8.68677 2.8857 9.23534C2.57962 9.52267 2.33726 9.87103 2.17427 10.2579C1.78599 11.1451 1.71484 12.2319 1.71484 13.1036C1.71484 14.5291 1.94199 16.7122 2.3577 18.5473C2.56513 19.4619 2.82742 20.3285 3.15056 20.9816C3.3117 21.3065 3.50456 21.6125 3.74027 21.8456C3.9777 22.0813 4.30599 22.2862 4.71742 22.2862C5.12884 22.2862 5.45627 22.0813 5.69456 21.8456C5.92942 21.6125 6.12227 21.3056 6.28256 20.9808C6.6057 20.3285 6.86713 19.4619 7.0737 18.5465C7.48856 16.7122 7.71484 14.5291 7.71484 13.1036C7.71484 12.2319 7.64542 11.1459 7.25799 10.2579C7.09511 9.87073 6.85273 9.52206 6.54656 9.23448C6.91036 8.95422 7.20496 8.59417 7.40766 8.18208C7.61036 7.76999 7.71575 7.31687 7.7157 6.85763C7.7157 5.89248 7.24256 5.22305 6.86284 4.68563L6.74456 4.51677C6.34684 3.94248 6.00142 3.36048 6.00142 2.35763ZM4.69342 9.85763H4.7397C5.12456 9.86191 5.38684 9.9622 5.57884 10.1011C5.78056 10.2456 5.94742 10.4696 6.07942 10.7731C6.3537 11.4013 6.42913 12.2593 6.42913 13.1045C6.42913 14.4305 6.21484 16.5176 5.82056 18.2645C5.6217 19.1405 5.38684 19.8931 5.13056 20.4108C5.00199 20.6713 4.8837 20.8393 4.78856 20.9328C4.76709 20.9553 4.74324 20.9754 4.71742 20.9928C4.69129 20.9755 4.66715 20.9553 4.64542 20.9328C4.55027 20.8385 4.43199 20.6713 4.30256 20.4099C4.04542 19.8922 3.81056 19.1396 3.6117 18.2636C3.21656 16.5176 3.00056 14.4305 3.00056 13.1036C3.00056 12.2602 3.07684 11.4022 3.35199 10.7739C3.48456 10.4711 3.65199 10.2471 3.85427 10.1019C4.04627 9.9622 4.30942 9.86191 4.69342 9.85763ZM4.73884 8.57191H4.69427C4.24319 8.5665 3.81242 8.3835 3.49537 8.06259C3.17831 7.74169 3.00053 7.30874 3.00056 6.85763C3.00056 6.26105 3.0597 5.7442 3.39056 5.15963C3.6477 4.70363 4.08827 4.17563 4.85627 3.54305C5.04056 4.2682 5.3757 4.79877 5.68599 5.24877L5.78884 5.39534C6.19256 5.97648 6.42913 6.31763 6.42913 6.85763C6.42917 7.3083 6.25174 7.74087 5.93524 8.0617C5.61873 8.38253 5.18948 8.56583 4.73884 8.57191ZM10.7148 3.85763C9.6777 3.85763 8.71256 4.16448 7.90427 4.69248C7.78256 4.49705 7.6617 4.32905 7.56056 4.18677L7.44913 4.02905C7.35663 3.89803 7.26941 3.76335 7.1877 3.62534C8.12682 3.0091 9.21101 2.64968 10.3323 2.58289C11.4535 2.5161 12.5727 2.74426 13.5784 3.24465C14.584 3.74504 15.441 4.50019 16.0639 5.43488C16.6869 6.36956 17.054 7.45116 17.1288 8.57191H19.072C19.9243 8.57191 20.7418 8.91044 21.3445 9.51305C21.9473 10.1157 22.286 10.933 22.2863 11.7853V17.3568C22.2864 17.7789 22.2033 18.197 22.0418 18.5871C21.8804 18.9772 21.6436 19.3316 21.3451 19.6302C21.0466 19.9287 20.6923 20.1656 20.3022 20.3272C19.9122 20.4887 19.4942 20.5719 19.072 20.5719H13.5006C12.6481 20.5719 11.8305 20.2333 11.2277 19.6305C10.6249 19.0277 10.2863 18.2101 10.2863 17.3576V15.4153C9.66764 15.3744 9.05819 15.2442 8.47684 15.0288C8.5197 14.5488 8.54799 14.0911 8.56256 13.6728C9.09399 13.9179 9.67513 14.0756 10.2863 14.1262V11.7862C10.2863 10.9337 10.6249 10.1161 11.2277 9.51335C11.8305 8.91056 12.6481 8.57191 13.5006 8.57191H15.8406C15.7331 7.28649 15.1465 6.0884 14.197 5.21519C13.2476 4.34199 12.0048 3.85744 10.7148 3.85763ZM17.0868 9.85763C16.8986 11.254 16.257 12.5499 15.2606 13.5463C14.2643 14.5426 12.9684 15.1842 11.572 15.3725V17.3576C11.572 17.8691 11.7752 18.3597 12.1369 18.7213C12.4985 19.083 12.9891 19.2862 13.5006 19.2862H19.072C19.5835 19.2862 20.074 19.083 20.4357 18.7213C20.7974 18.3597 21.0006 17.8691 21.0006 17.3576V11.7862C21.0006 11.2747 20.7974 10.7842 20.4357 10.4225C20.074 10.0608 19.5835 9.85763 19.072 9.85763H17.0868ZM15.7866 9.85763H13.5006C12.9891 9.85763 12.4985 10.0608 12.1369 10.4225C11.7752 10.7842 11.572 11.2747 11.572 11.7862V14.0722C12.6249 13.8937 13.5962 13.3922 14.3514 12.637C15.1065 11.8819 15.6081 10.9105 15.7866 9.85763Z" fill="white"/>
</svg>
