<svg width="16" height="17" viewBox="0 0 16 17" fill="none" xmlns="http://www.w3.org/2000/svg">
<path d="M2.66797 8.50016V10.1963C2.66797 12.3596 2.66797 13.4413 3.25868 14.174C3.37802 14.322 3.51284 14.4568 3.66086 14.5761C4.39351 15.1668 5.47518 15.1668 7.6385 15.1668C8.1089 15.1668 8.34404 15.1668 8.55944 15.0908C8.60424 15.075 8.6481 15.0568 8.69097 15.0364C8.89704 14.9378 9.0633 14.7715 9.3959 14.4389L12.5536 11.2812C12.939 10.8958 13.1316 10.7032 13.2332 10.4581C13.3346 10.2131 13.3346 9.94056 13.3346 9.39556V7.16683C13.3346 4.65267 13.3346 3.3956 12.5536 2.61454C11.7726 1.8335 10.5154 1.8335 8.0013 1.8335M8.66797 14.8335V14.5002C8.66797 12.6146 8.66797 11.6718 9.25377 11.086C9.83957 10.5002 10.7824 10.5002 12.668 10.5002H13.0013" stroke="#232D39" stroke-linecap="round" stroke-linejoin="round"/>
<path d="M6.66797 3.8335C6.27474 3.42894 5.22815 1.8335 4.66797 1.8335C4.10779 1.8335 3.0612 3.42894 2.66797 3.8335M4.66797 2.50016V7.16683" stroke="#232D39" stroke-linecap="round" stroke-linejoin="round"/>
</svg>
