<svg width="25" height="24" viewBox="0 0 25 24" fill="none" xmlns="http://www.w3.org/2000/svg">
<path d="M18.5 18C20.7091 18 22.5 14.4183 22.5 10C22.5 5.58172 20.7091 2 18.5 2C16.2909 2 14.5 5.58172 14.5 10C14.5 14.4183 16.2909 18 18.5 18Z" stroke="white" stroke-width="1.5" stroke-linecap="round" stroke-linejoin="round"/>
<path d="M18.5 2C15.397 2 8.965 4.378 5.271 5.854C3.579 6.53 2.5 8.178 2.5 10C2.5 11.822 3.58 13.47 5.271 14.146C8.965 15.622 15.397 18 18.5 18M11.5 22L9.557 20.93C8.51968 20.3559 7.67826 19.4841 7.14136 18.427C6.60446 17.37 6.39674 16.1763 6.545 15" stroke="white" stroke-width="1.5" stroke-linecap="round" stroke-linejoin="round"/>
</svg>
