<svg width="476" height="29" viewBox="0 0 476 29" fill="none" xmlns="http://www.w3.org/2000/svg">
<path d="M0.25 24.68H24.25V0.68H0.25V24.68ZM37.2213 23V6.2H47.6493V8.696H39.7173V12.752H46.1013V15.248H39.7173V20.504H47.6493V23H37.2213ZM49.1397 23L53.5317 16.976L49.1637 10.976H52.2477L55.0677 14.84L57.8997 10.976H60.9717L56.6157 16.976L61.0077 23H57.9237L55.0677 19.088L52.2237 23H49.1397ZM70.1354 19.592L72.3674 20.804C71.8234 21.564 71.1314 22.172 70.2914 22.628C69.4594 23.084 68.5554 23.312 67.5794 23.312C66.4754 23.312 65.4674 23.028 64.5554 22.46C63.6514 21.892 62.9274 21.132 62.3834 20.18C61.8474 19.22 61.5794 18.16 61.5794 17C61.5794 16.12 61.7354 15.3 62.0474 14.54C62.3594 13.772 62.7874 13.1 63.3314 12.524C63.8834 11.94 64.5234 11.484 65.2514 11.156C65.9794 10.828 66.7554 10.664 67.5794 10.664C68.5554 10.664 69.4594 10.892 70.2914 11.348C71.1314 11.804 71.8234 12.416 72.3674 13.184L70.1354 14.396C69.7994 13.996 69.4074 13.692 68.9594 13.484C68.5114 13.268 68.0514 13.16 67.5794 13.16C66.9234 13.16 66.3274 13.34 65.7914 13.7C65.2634 14.052 64.8434 14.52 64.5314 15.104C64.2274 15.68 64.0754 16.312 64.0754 17C64.0754 17.68 64.2314 18.312 64.5434 18.896C64.8554 19.472 65.2754 19.936 65.8034 20.288C66.3394 20.64 66.9314 20.816 67.5794 20.816C68.0754 20.816 68.5474 20.704 68.9954 20.48C69.4434 20.256 69.8234 19.96 70.1354 19.592ZM74.1588 11H76.6548V23H74.1588V11ZM75.4308 9.26C75.0468 9.26 74.7268 9.136 74.4708 8.888C74.2148 8.64 74.0868 8.328 74.0868 7.952C74.0868 7.584 74.2148 7.276 74.4708 7.028C74.7268 6.772 75.0428 6.644 75.4188 6.644C75.7868 6.644 76.0988 6.772 76.3548 7.028C76.6108 7.276 76.7388 7.584 76.7388 7.952C76.7388 8.328 76.6108 8.64 76.3548 8.888C76.1068 9.136 75.7988 9.26 75.4308 9.26ZM85.8619 13.496H83.3419L83.3299 23H80.8339L80.8459 13.496H78.9379V11H80.8459L80.8339 7.232H83.3299L83.3419 11H85.8619V13.496ZM87.8463 11H90.3423V23H87.8463V11ZM89.1183 9.26C88.7343 9.26 88.4143 9.136 88.1583 8.888C87.9023 8.64 87.7743 8.328 87.7743 7.952C87.7743 7.584 87.9023 7.276 88.1583 7.028C88.4143 6.772 88.7303 6.644 89.1063 6.644C89.4743 6.644 89.7863 6.772 90.0423 7.028C90.2983 7.276 90.4263 7.584 90.4263 7.952C90.4263 8.328 90.2983 8.64 90.0423 8.888C89.7943 9.136 89.4863 9.26 89.1183 9.26ZM103.92 15.476V23H101.424V16.088C101.424 15.552 101.292 15.064 101.028 14.624C100.772 14.184 100.424 13.836 99.9837 13.58C99.5517 13.316 99.0637 13.184 98.5197 13.184C97.9917 13.184 97.5077 13.316 97.0677 13.58C96.6277 13.836 96.2757 14.184 96.0117 14.624C95.7477 15.064 95.6157 15.552 95.6157 16.088V23H93.1197V11H95.6157V12.272C96.0317 11.776 96.5437 11.384 97.1517 11.096C97.7597 10.808 98.4157 10.664 99.1197 10.664C100.008 10.664 100.816 10.88 101.544 11.312C102.272 11.744 102.848 12.324 103.272 13.052C103.704 13.78 103.92 14.588 103.92 15.476ZM115.213 11H117.709V23.312C117.709 24.136 117.533 24.896 117.181 25.592C116.837 26.288 116.369 26.888 115.777 27.392C115.185 27.904 114.505 28.3 113.737 28.58C112.977 28.86 112.181 29 111.349 29C110.509 29 109.701 28.82 108.925 28.46C108.149 28.108 107.465 27.628 106.873 27.02C106.289 26.412 105.853 25.724 105.565 24.956L107.857 23.924C108.017 24.42 108.273 24.86 108.625 25.244C108.985 25.628 109.401 25.932 109.873 26.156C110.353 26.38 110.845 26.492 111.349 26.492C111.845 26.492 112.321 26.412 112.777 26.252C113.241 26.1 113.653 25.884 114.013 25.604C114.381 25.324 114.673 24.988 114.889 24.596C115.105 24.204 115.213 23.776 115.213 23.312V21.284C114.821 21.892 114.317 22.384 113.701 22.76C113.085 23.128 112.369 23.312 111.553 23.312C110.705 23.312 109.905 23.148 109.153 22.82C108.401 22.492 107.741 22.04 107.173 21.464C106.605 20.88 106.161 20.208 105.841 19.448C105.521 18.688 105.361 17.872 105.361 17C105.361 16.128 105.521 15.312 105.841 14.552C106.161 13.784 106.605 13.112 107.173 12.536C107.741 11.952 108.401 11.496 109.153 11.168C109.905 10.84 110.705 10.676 111.553 10.676C112.369 10.676 113.085 10.864 113.701 11.24C114.317 11.608 114.821 12.1 115.213 12.716V11ZM111.577 20.9C112.273 20.9 112.881 20.724 113.401 20.372C113.921 20.012 114.325 19.536 114.613 18.944C114.901 18.352 115.045 17.704 115.045 17C115.045 16.28 114.897 15.628 114.601 15.044C114.313 14.452 113.909 13.98 113.389 13.628C112.869 13.268 112.265 13.088 111.577 13.088C110.905 13.088 110.289 13.264 109.729 13.616C109.177 13.968 108.737 14.44 108.409 15.032C108.081 15.624 107.917 16.28 107.917 17C107.917 17.72 108.081 18.376 108.409 18.968C108.745 19.56 109.189 20.032 109.741 20.384C110.301 20.728 110.913 20.9 111.577 20.9ZM132.342 23.312C131.422 23.312 130.538 23.168 129.69 22.88C128.842 22.592 128.102 22.18 127.47 21.644C126.838 21.1 126.386 20.456 126.114 19.712L128.454 18.836C128.59 19.22 128.85 19.564 129.234 19.868C129.626 20.164 130.09 20.396 130.626 20.564C131.17 20.732 131.742 20.816 132.342 20.816C132.982 20.816 133.582 20.712 134.142 20.504C134.71 20.296 135.166 20.008 135.51 19.64C135.862 19.272 136.038 18.84 136.038 18.344C136.038 17.832 135.854 17.412 135.486 17.084C135.126 16.756 134.662 16.496 134.094 16.304C133.534 16.112 132.95 15.968 132.342 15.872C131.166 15.68 130.11 15.4 129.174 15.032C128.246 14.664 127.51 14.148 126.966 13.484C126.43 12.82 126.162 11.956 126.162 10.892C126.162 9.892 126.446 9.02 127.014 8.276C127.59 7.532 128.346 6.956 129.282 6.548C130.226 6.132 131.246 5.924 132.342 5.924C133.246 5.924 134.118 6.068 134.958 6.356C135.806 6.636 136.55 7.048 137.19 7.592C137.838 8.128 138.302 8.78 138.582 9.548L136.218 10.4C136.082 10.008 135.822 9.668 135.438 9.38C135.054 9.084 134.59 8.852 134.046 8.684C133.51 8.516 132.942 8.432 132.342 8.432C131.702 8.424 131.102 8.528 130.542 8.744C129.99 8.952 129.538 9.24 129.186 9.608C128.834 9.976 128.658 10.404 128.658 10.892C128.658 11.492 128.822 11.948 129.15 12.26C129.478 12.572 129.918 12.804 130.47 12.956C131.03 13.1 131.654 13.232 132.342 13.352C133.446 13.528 134.466 13.82 135.402 14.228C136.346 14.636 137.102 15.18 137.67 15.86C138.246 16.532 138.534 17.36 138.534 18.344C138.534 19.336 138.246 20.208 137.67 20.96C137.102 21.704 136.346 22.284 135.402 22.7C134.466 23.108 133.446 23.312 132.342 23.312ZM140.523 18.5V11H143.019V17.888C143.019 18.424 143.151 18.912 143.415 19.352C143.679 19.792 144.031 20.144 144.471 20.408C144.911 20.664 145.395 20.792 145.923 20.792C146.459 20.792 146.943 20.664 147.375 20.408C147.815 20.144 148.163 19.792 148.419 19.352C148.683 18.912 148.815 18.424 148.815 17.888V11H151.311L151.323 23H148.827L148.815 21.704C148.407 22.2 147.899 22.592 147.291 22.88C146.683 23.168 146.031 23.312 145.335 23.312C144.447 23.312 143.639 23.096 142.911 22.664C142.183 22.232 141.603 21.652 141.171 20.924C140.739 20.196 140.523 19.388 140.523 18.5ZM153.729 23V11H156.225V12.272C156.641 11.776 157.149 11.384 157.749 11.096C158.357 10.808 159.013 10.664 159.717 10.664C160.573 10.664 161.361 10.872 162.081 11.288C162.801 11.696 163.373 12.24 163.797 12.92C164.221 12.24 164.785 11.696 165.489 11.288C166.201 10.872 166.985 10.664 167.841 10.664C168.729 10.664 169.537 10.88 170.265 11.312C170.993 11.744 171.573 12.324 172.005 13.052C172.437 13.78 172.653 14.588 172.653 15.476V23H170.157V16.112C170.157 15.584 170.029 15.1 169.773 14.66C169.517 14.22 169.173 13.864 168.741 13.592C168.309 13.32 167.829 13.184 167.301 13.184C166.773 13.184 166.293 13.312 165.861 13.568C165.429 13.824 165.085 14.172 164.829 14.612C164.573 15.052 164.445 15.552 164.445 16.112V23H161.949V16.112C161.949 15.552 161.821 15.052 161.565 14.612C161.309 14.172 160.961 13.824 160.521 13.568C160.089 13.312 159.609 13.184 159.081 13.184C158.561 13.184 158.081 13.32 157.641 13.592C157.209 13.864 156.865 14.22 156.609 14.66C156.353 15.1 156.225 15.584 156.225 16.112V23H153.729ZM175.057 23V11H177.553V12.272C177.969 11.776 178.477 11.384 179.077 11.096C179.685 10.808 180.341 10.664 181.045 10.664C181.901 10.664 182.689 10.872 183.409 11.288C184.129 11.696 184.701 12.24 185.125 12.92C185.549 12.24 186.113 11.696 186.817 11.288C187.529 10.872 188.313 10.664 189.169 10.664C190.057 10.664 190.865 10.88 191.593 11.312C192.321 11.744 192.901 12.324 193.333 13.052C193.765 13.78 193.981 14.588 193.981 15.476V23H191.485V16.112C191.485 15.584 191.357 15.1 191.101 14.66C190.845 14.22 190.501 13.864 190.069 13.592C189.637 13.32 189.157 13.184 188.629 13.184C188.101 13.184 187.621 13.312 187.189 13.568C186.757 13.824 186.413 14.172 186.157 14.612C185.901 15.052 185.773 15.552 185.773 16.112V23H183.277V16.112C183.277 15.552 183.149 15.052 182.893 14.612C182.637 14.172 182.289 13.824 181.849 13.568C181.417 13.312 180.937 13.184 180.409 13.184C179.889 13.184 179.409 13.32 178.969 13.592C178.537 13.864 178.193 14.22 177.937 14.66C177.681 15.1 177.553 15.584 177.553 16.112V23H175.057ZM201.431 23.312C200.327 23.312 199.319 23.028 198.407 22.46C197.503 21.892 196.779 21.132 196.235 20.18C195.699 19.22 195.431 18.16 195.431 17C195.431 16.12 195.587 15.3 195.899 14.54C196.211 13.772 196.639 13.1 197.183 12.524C197.735 11.94 198.375 11.484 199.103 11.156C199.831 10.828 200.607 10.664 201.431 10.664C202.351 10.664 203.195 10.856 203.963 11.24C204.731 11.616 205.387 12.14 205.931 12.812C206.475 13.476 206.875 14.244 207.131 15.116C207.387 15.98 207.463 16.9 207.359 17.876H198.107C198.211 18.428 198.411 18.928 198.707 19.376C199.011 19.816 199.395 20.164 199.859 20.42C200.331 20.676 200.855 20.808 201.431 20.816C202.039 20.816 202.591 20.664 203.087 20.36C203.591 20.056 204.003 19.636 204.323 19.1L206.855 19.688C206.375 20.752 205.651 21.624 204.683 22.304C203.715 22.976 202.631 23.312 201.431 23.312ZM198.023 15.968H204.839C204.759 15.392 204.555 14.872 204.227 14.408C203.907 13.936 203.503 13.564 203.015 13.292C202.535 13.012 202.007 12.872 201.431 12.872C200.863 12.872 200.335 13.008 199.847 13.28C199.367 13.552 198.967 13.924 198.647 14.396C198.335 14.86 198.127 15.384 198.023 15.968ZM209.346 23V11H211.842V12.272C212.258 11.776 212.77 11.384 213.378 11.096C213.986 10.808 214.642 10.664 215.346 10.664C215.794 10.664 216.238 10.724 216.678 10.844L215.682 13.364C215.37 13.244 215.058 13.184 214.746 13.184C214.218 13.184 213.734 13.316 213.294 13.58C212.854 13.836 212.502 14.184 212.238 14.624C211.974 15.064 211.842 15.552 211.842 16.088V23H209.346ZM224.135 23V6.2H229.919C230.823 6.2 231.639 6.424 232.367 6.872C233.103 7.32 233.687 7.924 234.119 8.684C234.559 9.444 234.779 10.284 234.779 11.204C234.779 12.14 234.555 12.988 234.107 13.748C233.667 14.5 233.079 15.1 232.343 15.548C231.607 15.996 230.799 16.22 229.919 16.22H226.631V23H224.135ZM226.631 13.724H229.667C230.147 13.724 230.583 13.604 230.975 13.364C231.375 13.124 231.691 12.804 231.923 12.404C232.163 12.004 232.283 11.552 232.283 11.048C232.283 10.544 232.163 10.092 231.923 9.692C231.691 9.284 231.375 8.964 230.975 8.732C230.583 8.492 230.147 8.372 229.667 8.372H226.631V13.724ZM236.745 23V11H239.241V12.272C239.657 11.776 240.169 11.384 240.777 11.096C241.385 10.808 242.041 10.664 242.745 10.664C243.193 10.664 243.637 10.724 244.077 10.844L243.081 13.364C242.769 13.244 242.457 13.184 242.145 13.184C241.617 13.184 241.133 13.316 240.693 13.58C240.253 13.836 239.901 14.184 239.637 14.624C239.373 15.064 239.241 15.552 239.241 16.088V23H236.745ZM250.181 23.312C249.077 23.312 248.069 23.028 247.157 22.46C246.253 21.892 245.529 21.132 244.985 20.18C244.449 19.22 244.181 18.16 244.181 17C244.181 16.12 244.337 15.3 244.649 14.54C244.961 13.772 245.389 13.1 245.933 12.524C246.485 11.94 247.125 11.484 247.853 11.156C248.581 10.828 249.357 10.664 250.181 10.664C251.285 10.664 252.289 10.948 253.193 11.516C254.105 12.084 254.829 12.848 255.365 13.808C255.909 14.768 256.181 15.832 256.181 17C256.181 17.872 256.025 18.688 255.713 19.448C255.401 20.208 254.969 20.88 254.417 21.464C253.873 22.04 253.237 22.492 252.509 22.82C251.789 23.148 251.013 23.312 250.181 23.312ZM250.181 20.816C250.845 20.816 251.441 20.64 251.969 20.288C252.497 19.936 252.913 19.472 253.217 18.896C253.529 18.312 253.685 17.68 253.685 17C253.685 16.304 253.525 15.664 253.205 15.08C252.893 14.496 252.473 14.032 251.945 13.688C251.417 13.336 250.829 13.16 250.181 13.16C249.525 13.16 248.929 13.336 248.393 13.688C247.865 14.04 247.445 14.508 247.133 15.092C246.829 15.676 246.677 16.312 246.677 17C246.677 17.712 246.837 18.356 247.157 18.932C247.477 19.508 247.901 19.968 248.429 20.312C248.965 20.648 249.549 20.816 250.181 20.816ZM258.12 23V11H260.616V12.272C261.032 11.776 261.54 11.384 262.14 11.096C262.748 10.808 263.404 10.664 264.108 10.664C264.964 10.664 265.752 10.872 266.472 11.288C267.192 11.696 267.764 12.24 268.188 12.92C268.612 12.24 269.176 11.696 269.88 11.288C270.592 10.872 271.376 10.664 272.232 10.664C273.12 10.664 273.928 10.88 274.656 11.312C275.384 11.744 275.964 12.324 276.396 13.052C276.828 13.78 277.044 14.588 277.044 15.476V23H274.548V16.112C274.548 15.584 274.42 15.1 274.164 14.66C273.908 14.22 273.564 13.864 273.132 13.592C272.7 13.32 272.22 13.184 271.692 13.184C271.164 13.184 270.684 13.312 270.252 13.568C269.82 13.824 269.476 14.172 269.22 14.612C268.964 15.052 268.836 15.552 268.836 16.112V23H266.34V16.112C266.34 15.552 266.212 15.052 265.956 14.612C265.7 14.172 265.352 13.824 264.912 13.568C264.48 13.312 264 13.184 263.472 13.184C262.952 13.184 262.472 13.32 262.032 13.592C261.6 13.864 261.256 14.22 261 14.66C260.744 15.1 260.616 15.584 260.616 16.112V23H258.12ZM284.493 23.312C283.389 23.312 282.381 23.028 281.469 22.46C280.565 21.892 279.841 21.132 279.297 20.18C278.761 19.22 278.493 18.16 278.493 17C278.493 16.12 278.649 15.3 278.961 14.54C279.273 13.772 279.701 13.1 280.245 12.524C280.797 11.94 281.437 11.484 282.165 11.156C282.893 10.828 283.669 10.664 284.493 10.664C285.597 10.664 286.601 10.948 287.505 11.516C288.417 12.084 289.141 12.848 289.677 13.808C290.221 14.768 290.493 15.832 290.493 17C290.493 17.872 290.337 18.688 290.025 19.448C289.713 20.208 289.281 20.88 288.729 21.464C288.185 22.04 287.549 22.492 286.821 22.82C286.101 23.148 285.325 23.312 284.493 23.312ZM284.493 20.816C285.157 20.816 285.753 20.64 286.281 20.288C286.809 19.936 287.225 19.472 287.529 18.896C287.841 18.312 287.997 17.68 287.997 17C287.997 16.304 287.837 15.664 287.517 15.08C287.205 14.496 286.785 14.032 286.257 13.688C285.729 13.336 285.141 13.16 284.493 13.16C283.837 13.16 283.241 13.336 282.705 13.688C282.177 14.04 281.757 14.508 281.445 15.092C281.141 15.676 280.989 16.312 280.989 17C280.989 17.712 281.149 18.356 281.469 18.932C281.789 19.508 282.213 19.968 282.741 20.312C283.277 20.648 283.861 20.816 284.493 20.816ZM298.698 13.496H296.178L296.166 23H293.67L293.682 13.496H291.774V11H293.682L293.67 7.232H296.166L296.178 11H298.698V13.496ZM300.682 11H303.178V23H300.682V11ZM301.954 9.26C301.57 9.26 301.25 9.136 300.994 8.888C300.738 8.64 300.61 8.328 300.61 7.952C300.61 7.584 300.738 7.276 300.994 7.028C301.25 6.772 301.566 6.644 301.942 6.644C302.31 6.644 302.622 6.772 302.878 7.028C303.134 7.276 303.262 7.584 303.262 7.952C303.262 8.328 303.134 8.64 302.878 8.888C302.63 9.136 302.322 9.26 301.954 9.26ZM311.118 23.312C310.014 23.312 309.006 23.028 308.094 22.46C307.19 21.892 306.466 21.132 305.922 20.18C305.386 19.22 305.118 18.16 305.118 17C305.118 16.12 305.274 15.3 305.586 14.54C305.898 13.772 306.326 13.1 306.87 12.524C307.422 11.94 308.062 11.484 308.79 11.156C309.518 10.828 310.294 10.664 311.118 10.664C312.222 10.664 313.226 10.948 314.13 11.516C315.042 12.084 315.766 12.848 316.302 13.808C316.846 14.768 317.118 15.832 317.118 17C317.118 17.872 316.962 18.688 316.65 19.448C316.338 20.208 315.906 20.88 315.354 21.464C314.81 22.04 314.174 22.492 313.446 22.82C312.726 23.148 311.95 23.312 311.118 23.312ZM311.118 20.816C311.782 20.816 312.378 20.64 312.906 20.288C313.434 19.936 313.85 19.472 314.154 18.896C314.466 18.312 314.622 17.68 314.622 17C314.622 16.304 314.462 15.664 314.142 15.08C313.83 14.496 313.41 14.032 312.882 13.688C312.354 13.336 311.766 13.16 311.118 13.16C310.462 13.16 309.866 13.336 309.33 13.688C308.802 14.04 308.382 14.508 308.07 15.092C307.766 15.676 307.614 16.312 307.614 17C307.614 17.712 307.774 18.356 308.094 18.932C308.414 19.508 308.838 19.968 309.366 20.312C309.902 20.648 310.486 20.816 311.118 20.816ZM329.857 15.476V23H327.361V16.088C327.361 15.552 327.229 15.064 326.965 14.624C326.709 14.184 326.361 13.836 325.921 13.58C325.489 13.316 325.001 13.184 324.457 13.184C323.929 13.184 323.445 13.316 323.005 13.58C322.565 13.836 322.213 14.184 321.949 14.624C321.685 15.064 321.553 15.552 321.553 16.088V23H319.057V11H321.553V12.272C321.969 11.776 322.481 11.384 323.089 11.096C323.697 10.808 324.353 10.664 325.057 10.664C325.945 10.664 326.753 10.88 327.481 11.312C328.209 11.744 328.785 12.324 329.209 13.052C329.641 13.78 329.857 14.588 329.857 15.476ZM335.853 23.228C335.221 23.188 334.605 23.06 334.005 22.844C333.405 22.628 332.877 22.336 332.421 21.968C331.973 21.592 331.637 21.152 331.413 20.648L333.537 19.736C333.641 19.952 333.821 20.164 334.077 20.372C334.341 20.58 334.649 20.752 335.001 20.888C335.353 21.016 335.721 21.08 336.105 21.08C336.481 21.08 336.829 21.028 337.148 20.924C337.477 20.812 337.745 20.644 337.953 20.42C338.161 20.196 338.265 19.928 338.265 19.616C338.265 19.264 338.145 18.992 337.905 18.8C337.673 18.6 337.381 18.448 337.029 18.344C336.677 18.24 336.325 18.14 335.973 18.044C335.189 17.868 334.469 17.628 333.812 17.324C333.165 17.012 332.649 16.616 332.265 16.136C331.881 15.648 331.689 15.052 331.689 14.348C331.689 13.58 331.897 12.916 332.312 12.356C332.729 11.788 333.273 11.352 333.945 11.048C334.625 10.744 335.349 10.592 336.117 10.592C337.077 10.592 337.957 10.796 338.757 11.204C339.557 11.612 340.169 12.172 340.593 12.884L338.613 14.06C338.493 13.82 338.313 13.604 338.073 13.412C337.833 13.22 337.561 13.068 337.257 12.956C336.953 12.836 336.637 12.768 336.309 12.752C335.901 12.736 335.521 12.784 335.169 12.896C334.825 13 334.549 13.168 334.34 13.4C334.133 13.632 334.029 13.928 334.029 14.288C334.029 14.64 334.153 14.904 334.401 15.08C334.649 15.248 334.961 15.384 335.337 15.488C335.721 15.592 336.113 15.708 336.513 15.836C337.225 16.06 337.893 16.336 338.517 16.664C339.141 16.984 339.645 17.38 340.029 17.852C340.413 18.324 340.597 18.9 340.581 19.58C340.581 20.332 340.353 20.992 339.897 21.56C339.449 22.128 338.865 22.56 338.145 22.856C337.425 23.152 336.661 23.276 335.853 23.228ZM354.029 6.2H356.945L363.053 23H360.413L359.249 19.808H351.725L350.573 23H347.921L354.029 6.2ZM352.649 17.312H358.325L355.481 9.512L352.649 17.312ZM365.018 23V11H367.514V12.272C367.93 11.776 368.442 11.384 369.05 11.096C369.658 10.808 370.314 10.664 371.018 10.664C371.466 10.664 371.91 10.724 372.35 10.844L371.354 13.364C371.042 13.244 370.73 13.184 370.418 13.184C369.89 13.184 369.406 13.316 368.966 13.58C368.526 13.836 368.174 14.184 367.91 14.624C367.646 15.064 367.514 15.552 367.514 16.088V23H365.018ZM378.454 23.312C377.35 23.312 376.342 23.028 375.43 22.46C374.526 21.892 373.802 21.132 373.258 20.18C372.722 19.22 372.454 18.16 372.454 17C372.454 16.12 372.61 15.3 372.922 14.54C373.234 13.772 373.662 13.1 374.206 12.524C374.758 11.94 375.398 11.484 376.126 11.156C376.854 10.828 377.63 10.664 378.454 10.664C379.374 10.664 380.218 10.856 380.986 11.24C381.754 11.616 382.41 12.14 382.954 12.812C383.498 13.476 383.898 14.244 384.154 15.116C384.41 15.98 384.486 16.9 384.382 17.876H375.13C375.234 18.428 375.434 18.928 375.73 19.376C376.034 19.816 376.418 20.164 376.882 20.42C377.354 20.676 377.878 20.808 378.454 20.816C379.062 20.816 379.614 20.664 380.11 20.36C380.614 20.056 381.026 19.636 381.346 19.1L383.878 19.688C383.398 20.752 382.674 21.624 381.706 22.304C380.738 22.976 379.654 23.312 378.454 23.312ZM375.046 15.968H381.862C381.782 15.392 381.578 14.872 381.25 14.408C380.93 13.936 380.526 13.564 380.038 13.292C379.558 13.012 379.03 12.872 378.454 12.872C377.886 12.872 377.358 13.008 376.87 13.28C376.39 13.552 375.99 13.924 375.67 14.396C375.358 14.86 375.15 15.384 375.046 15.968ZM402.438 6.2H404.934V23H402.438V15.248H394.842V23H392.346V6.2H394.842V12.752H402.438V6.2ZM412.931 23.312C411.827 23.312 410.819 23.028 409.907 22.46C409.003 21.892 408.279 21.132 407.735 20.18C407.199 19.22 406.931 18.16 406.931 17C406.931 16.12 407.087 15.3 407.399 14.54C407.711 13.772 408.139 13.1 408.683 12.524C409.235 11.94 409.875 11.484 410.603 11.156C411.331 10.828 412.107 10.664 412.931 10.664C413.851 10.664 414.695 10.856 415.463 11.24C416.231 11.616 416.887 12.14 417.431 12.812C417.975 13.476 418.375 14.244 418.631 15.116C418.887 15.98 418.963 16.9 418.859 17.876H409.607C409.711 18.428 409.911 18.928 410.207 19.376C410.511 19.816 410.895 20.164 411.359 20.42C411.831 20.676 412.355 20.808 412.931 20.816C413.539 20.816 414.091 20.664 414.587 20.36C415.091 20.056 415.503 19.636 415.823 19.1L418.355 19.688C417.875 20.752 417.151 21.624 416.183 22.304C415.215 22.976 414.131 23.312 412.931 23.312ZM409.523 15.968H416.339C416.259 15.392 416.055 14.872 415.727 14.408C415.407 13.936 415.003 13.564 414.515 13.292C414.035 13.012 413.507 12.872 412.931 12.872C412.363 12.872 411.835 13.008 411.347 13.28C410.867 13.552 410.467 13.924 410.147 14.396C409.835 14.86 409.627 15.384 409.523 15.968ZM420.846 23V11H423.342V12.272C423.758 11.776 424.27 11.384 424.878 11.096C425.486 10.808 426.142 10.664 426.846 10.664C427.294 10.664 427.738 10.724 428.178 10.844L427.182 13.364C426.87 13.244 426.558 13.184 426.246 13.184C425.718 13.184 425.234 13.316 424.794 13.58C424.354 13.836 424.002 14.184 423.738 14.624C423.474 15.064 423.342 15.552 423.342 16.088V23H420.846ZM434.283 23.312C433.179 23.312 432.171 23.028 431.259 22.46C430.355 21.892 429.631 21.132 429.087 20.18C428.551 19.22 428.283 18.16 428.283 17C428.283 16.12 428.439 15.3 428.751 14.54C429.063 13.772 429.491 13.1 430.035 12.524C430.587 11.94 431.227 11.484 431.955 11.156C432.683 10.828 433.459 10.664 434.283 10.664C435.203 10.664 436.047 10.856 436.815 11.24C437.583 11.616 438.239 12.14 438.783 12.812C439.327 13.476 439.727 14.244 439.983 15.116C440.239 15.98 440.315 16.9 440.211 17.876H430.959C431.063 18.428 431.263 18.928 431.559 19.376C431.863 19.816 432.247 20.164 432.711 20.42C433.183 20.676 433.707 20.808 434.283 20.816C434.891 20.816 435.443 20.664 435.939 20.36C436.443 20.056 436.855 19.636 437.175 19.1L439.707 19.688C439.227 20.752 438.503 21.624 437.535 22.304C436.567 22.976 435.483 23.312 434.283 23.312ZM430.875 15.968H437.691C437.611 15.392 437.407 14.872 437.079 14.408C436.759 13.936 436.355 13.564 435.867 13.292C435.387 13.012 434.859 12.872 434.283 12.872C433.715 12.872 433.187 13.008 432.699 13.28C432.219 13.552 431.819 13.924 431.499 14.396C431.187 14.86 430.979 15.384 430.875 15.968ZM442.181 17.96V6.2H444.305V17.96H442.181ZM443.249 23.312C442.881 23.312 442.569 23.184 442.313 22.928C442.057 22.672 441.929 22.356 441.929 21.98C441.929 21.62 442.057 21.316 442.313 21.068C442.569 20.812 442.881 20.684 443.249 20.684C443.609 20.684 443.913 20.812 444.161 21.068C444.417 21.316 444.545 21.62 444.545 21.98C444.545 22.356 444.417 22.672 444.161 22.928C443.913 23.184 443.609 23.312 443.249 23.312ZM451.75 24.68H475.75V0.68H451.75V24.68Z" fill="white"/>
</svg>
