<svg width="21" height="20" viewBox="0 0 21 20" fill="none" xmlns="http://www.w3.org/2000/svg">
<path d="M15.3918 8.74984C17.3478 8.74984 18.9334 7.16418 18.9334 5.20817C18.9334 3.25216 17.3478 1.6665 15.3918 1.6665C13.4358 1.6665 11.8501 3.25216 11.8501 5.20817C11.8501 7.16418 13.4358 8.74984 15.3918 8.74984Z" stroke="#232D39" stroke-width="1.5"/>
<path d="M5.80851 8.74984C7.76452 8.74984 9.35018 7.16418 9.35018 5.20817C9.35018 3.25216 7.76452 1.6665 5.80851 1.6665C3.8525 1.6665 2.26685 3.25216 2.26685 5.20817C2.26685 7.16418 3.8525 8.74984 5.80851 8.74984Z" stroke="#232D39" stroke-width="1.5"/>
<path d="M15.3918 18.3333C17.3478 18.3333 18.9334 16.7477 18.9334 14.7917C18.9334 12.8357 17.3478 11.25 15.3918 11.25C13.4358 11.25 11.8501 12.8357 11.8501 14.7917C11.8501 16.7477 13.4358 18.3333 15.3918 18.3333Z" stroke="#232D39" stroke-width="1.5"/>
<path d="M5.80851 18.3333C7.76452 18.3333 9.35018 16.7477 9.35018 14.7917C9.35018 12.8357 7.76452 11.25 5.80851 11.25C3.8525 11.25 2.26685 12.8357 2.26685 14.7917C2.26685 16.7477 3.8525 18.3333 5.80851 18.3333Z" stroke="#232D39" stroke-width="1.5"/>
</svg>
