<svg width="20" height="20" viewBox="0 0 20 20" fill="none" xmlns="http://www.w3.org/2000/svg">
<path d="M11.7281 3.23771C12.3491 2.5649 12.6596 2.2285 12.9895 2.03228C13.7856 1.5588 14.7659 1.54408 15.5754 1.99344C15.9108 2.17967 16.2308 2.5066 16.8709 3.16047C17.5109 3.81434 17.831 4.14127 18.0133 4.48395C18.4532 5.31077 18.4388 6.31216 17.9753 7.12542C17.7832 7.46247 17.4539 7.77965 16.7953 8.414L8.95885 15.9618C7.71075 17.1639 7.08669 17.765 6.30674 18.0696C5.52679 18.3743 4.66935 18.3518 2.95449 18.307L2.72117 18.3009C2.19911 18.2873 1.93808 18.2804 1.78635 18.1082C1.6346 17.936 1.65532 17.6701 1.69675 17.1383L1.71925 16.8496C1.83586 15.3528 1.89416 14.6044 2.18645 13.9317C2.47872 13.2589 2.98289 12.7128 3.99121 11.6203L11.7281 3.23771Z" stroke="white" stroke-width="1.5" stroke-linejoin="round"/>
<path d="M10.8333 3.3335L16.6666 9.16683" stroke="white" stroke-width="1.5" stroke-linejoin="round"/>
<path d="M11.6667 18.3335H18.3334" stroke="white" stroke-width="1.5" stroke-linecap="round" stroke-linejoin="round"/>
</svg>
