<svg width="23" height="22" viewBox="0 0 23 22" fill="none" xmlns="http://www.w3.org/2000/svg">
<path d="M11.6 18.0078C10.3616 17.136 8.92793 16.5805 7.4246 16.3935C6.35838 16.1769 5.2721 16.0746 4.18418 16.0883C4.04498 16.0895 3.90691 16.0631 3.77796 16.0107C3.649 15.9583 3.5317 15.8808 3.43284 15.7828C3.33398 15.6848 3.25551 15.5682 3.20196 15.4397C3.14841 15.3112 3.12084 15.1733 3.12085 15.0341L3.1401 5.04887C3.13951 4.78095 3.24096 4.52286 3.42383 4.32705C3.6067 4.13124 3.85726 4.01241 4.1246 3.9947C5.23206 3.97269 6.33862 4.07167 7.4246 4.28987C8.9263 4.48361 10.3589 5.03776 11.6 5.90504M11.6 18.0078V5.90504M11.6 18.0078C12.8384 17.136 14.2721 16.5805 15.7754 16.3935C16.8417 16.1769 17.9279 16.0746 19.0159 16.0883C19.1551 16.0895 19.2931 16.0631 19.4221 16.0107C19.551 15.9583 19.6683 15.8808 19.7672 15.7828C19.8661 15.6848 19.9445 15.5682 19.9981 15.4397C20.0516 15.3112 20.0792 15.1733 20.0792 15.0341L20.059 5.04887C20.0596 4.7811 19.9583 4.52313 19.7756 4.32735C19.5929 4.13156 19.3426 4.01263 19.0754 3.9947C17.968 3.97269 16.8614 4.07167 15.7754 4.28987C14.2737 4.48361 12.8412 5.03776 11.6 5.90504" stroke="#232D39" stroke-width="1.5" stroke-linecap="round" stroke-linejoin="round"/>
</svg>
