<svg width="17" height="18" viewBox="0 0 17 18" fill="none" xmlns="http://www.w3.org/2000/svg">
<path d="M15.2125 9.55048C15.0789 9.39841 15.0052 9.20291 15.0052 9.00048C15.0052 8.79806 15.0789 8.60256 15.2125 8.45048L16.2792 7.25048C16.3967 7.11937 16.4697 6.9544 16.4877 6.77924C16.5056 6.60407 16.4677 6.42772 16.3792 6.27548L14.7125 3.39215C14.6249 3.24008 14.4916 3.11955 14.3315 3.04772C14.1714 2.9759 13.9927 2.95645 13.8208 2.99215L12.2542 3.30882C12.0548 3.35001 11.8473 3.31681 11.6707 3.21548C11.4942 3.11416 11.3608 2.95172 11.2958 2.75882L10.7875 1.23382C10.7316 1.0683 10.6251 0.924536 10.483 0.822851C10.341 0.721165 10.1705 0.666698 9.99584 0.667149H6.66251C6.48079 0.657664 6.30095 0.707921 6.15048 0.810244C6 0.912567 5.88716 1.06133 5.82918 1.23382L5.36251 2.75882C5.29751 2.95172 5.16415 3.11416 4.9876 3.21548C4.81105 3.31681 4.60352 3.35001 4.40418 3.30882L2.79584 2.99215C2.63297 2.96913 2.46693 2.99483 2.31863 3.06602C2.17034 3.1372 2.04643 3.25067 1.96251 3.39215L0.295842 6.27548C0.205143 6.42602 0.164361 6.60139 0.179328 6.7765C0.194295 6.95162 0.264244 7.11752 0.379176 7.25048L1.43751 8.45048C1.57111 8.60256 1.64479 8.79806 1.64479 9.00048C1.64479 9.20291 1.57111 9.39841 1.43751 9.55048L0.379176 10.7505C0.264244 10.8834 0.194295 11.0493 0.179328 11.2245C0.164361 11.3996 0.205143 11.5749 0.295842 11.7255L1.96251 14.6088C2.05009 14.7609 2.18344 14.8814 2.34355 14.9532C2.50366 15.0251 2.68236 15.0445 2.85418 15.0088L4.42084 14.6921C4.62019 14.651 4.82772 14.6842 5.00427 14.7855C5.18082 14.8868 5.31418 15.0492 5.37918 15.2421L5.88751 16.7671C5.94549 16.9396 6.05834 17.0884 6.20881 17.1907C6.35929 17.293 6.53912 17.3433 6.72084 17.3338H10.0542C10.2289 17.3343 10.3993 17.2798 10.5414 17.1781C10.6834 17.0764 10.7899 16.9327 10.8458 16.7671L11.3542 15.2421C11.4192 15.0492 11.5525 14.8868 11.7291 14.7855C11.9056 14.6842 12.1132 14.651 12.3125 14.6921L13.8792 15.0088C14.051 15.0445 14.2297 15.0251 14.3898 14.9532C14.5499 14.8814 14.6833 14.7609 14.7708 14.6088L16.4375 11.7255C16.526 11.5732 16.564 11.3969 16.546 11.2217C16.528 11.0466 16.455 10.8816 16.3375 10.7505L15.2125 9.55048ZM13.9708 10.6671L14.6375 11.4171L13.5708 13.2671L12.5875 13.0671C11.9873 12.9445 11.363 13.0464 10.833 13.3537C10.303 13.6609 9.9043 14.152 9.71251 14.7338L9.39584 15.6671H7.26251L6.96251 14.7171C6.77072 14.1354 6.37199 13.6442 5.84201 13.337C5.31203 13.0297 4.68769 12.9278 4.08751 13.0505L3.10418 13.2505L2.02084 11.4088L2.68751 10.6588C3.09747 10.2005 3.32412 9.60709 3.32412 8.99215C3.32412 8.37721 3.09747 7.78383 2.68751 7.32548L2.02084 6.57548L3.08751 4.74215L4.07084 4.94215C4.67103 5.06483 5.29537 4.96288 5.82535 4.65565C6.35533 4.34841 6.75405 3.85728 6.94584 3.27548L7.26251 2.33382H9.39584L9.71251 3.28382C9.9043 3.86561 10.303 4.35675 10.833 4.66398C11.363 4.97122 11.9873 5.07317 12.5875 4.95048L13.5708 4.75048L14.6375 6.60048L13.9708 7.35048C13.5655 7.80778 13.3417 8.39772 13.3417 9.00882C13.3417 9.61992 13.5655 10.2098 13.9708 10.6671ZM8.32918 5.66715C7.6699 5.66715 7.02544 5.86265 6.47727 6.22892C5.92911 6.59519 5.50187 7.11578 5.24958 7.72487C4.99728 8.33396 4.93127 9.00418 5.05989 9.65078C5.18851 10.2974 5.50598 10.8913 5.97215 11.3575C6.43833 11.8237 7.03227 12.1411 7.67887 12.2698C8.32548 12.3984 8.9957 12.3324 9.60479 12.0801C10.2139 11.8278 10.7345 11.4005 11.1007 10.8524C11.467 10.3042 11.6625 9.65975 11.6625 9.00048C11.6625 8.11643 11.3113 7.26858 10.6862 6.64346C10.0611 6.01834 9.21323 5.66715 8.32918 5.66715ZM8.32918 10.6671C7.99954 10.6671 7.67731 10.5694 7.40322 10.3863C7.12914 10.2031 6.91552 9.94283 6.78938 9.63829C6.66323 9.33375 6.63022 8.99863 6.69453 8.67533C6.75884 8.35203 6.91758 8.05506 7.15066 7.82197C7.38375 7.58888 7.68072 7.43015 8.00403 7.36584C8.32733 7.30153 8.66244 7.33454 8.96698 7.46068C9.27152 7.58683 9.53182 7.80045 9.71496 8.07453C9.89809 8.34861 9.99584 8.67085 9.99584 9.00048C9.99584 9.44251 9.82025 9.86643 9.50769 10.179C9.19513 10.4916 8.7712 10.6671 8.32918 10.6671Z" fill="#232D39"/>
</svg>
