<svg width="21" height="20" viewBox="0 0 21 20" fill="none" xmlns="http://www.w3.org/2000/svg">
<path d="M7.11494 14.259C6.19796 14.7855 3.79369 15.8606 5.25805 17.2058C5.97339 17.863 6.77008 18.333 7.77171 18.333H13.4872C14.4889 18.333 15.2856 17.863 16.0009 17.2058C17.4652 15.8606 15.061 14.7855 14.144 14.259C11.9937 13.0243 9.26523 13.0243 7.11494 14.259Z" stroke="#232D39" stroke-width="1.5" stroke-linecap="round" stroke-linejoin="round"/>
<path d="M13.546 8.33366C13.546 9.94449 12.2401 11.2503 10.6293 11.2503C9.01848 11.2503 7.71265 9.94449 7.71265 8.33366C7.71265 6.72283 9.01848 5.41699 10.6293 5.41699C12.2401 5.41699 13.546 6.72283 13.546 8.33366Z" stroke="#232D39" stroke-width="1.5"/>
<path d="M3.00781 13.3337C2.55032 12.3057 2.29614 11.1678 2.29614 9.97083C2.29614 5.38473 6.0271 1.66699 10.6295 1.66699C15.2318 1.66699 18.9628 5.38473 18.9628 9.97083C18.9628 11.1678 18.7086 12.3057 18.2511 13.3337" stroke="#232D39" stroke-width="1.5" stroke-linecap="round"/>
</svg>
