<svg width="18" height="18" viewBox="0 0 18 18" fill="none" xmlns="http://www.w3.org/2000/svg">
<path fill-rule="evenodd" clip-rule="evenodd" d="M4.54537 7.81944C3.85279 7.81944 3.70825 7.95537 3.70825 8.60647V9.78705C3.70825 10.4382 3.85279 10.5741 4.54537 10.5741H6.21961V15.2963C6.21961 15.9474 6.36416 16.0834 7.05674 16.0834H8.73097C9.42358 16.0834 9.56808 15.9474 9.56808 15.2963V10.5741H11.448C11.9733 10.5741 12.1087 10.4781 12.2529 10.0033L12.6117 8.82272C12.8589 8.00934 12.7066 7.81944 11.8068 7.81944H9.56808V5.85188C9.56808 5.41721 9.94286 5.06483 10.4052 5.06483H12.7878C13.4803 5.06483 13.6249 4.92894 13.6249 4.2778V2.70372C13.6249 2.05258 13.4803 1.91669 12.7878 1.91669H10.4052C8.09354 1.91669 6.21961 3.67853 6.21961 5.85188V7.81944H4.54537Z" stroke="white" stroke-width="1.5" stroke-linejoin="round"/>
</svg>
