<svg width="19" height="18" viewBox="0 0 19 18" fill="none" xmlns="http://www.w3.org/2000/svg">
<path d="M17.7533 9.1875C17.7533 8.6025 17.7008 8.04 17.6033 7.5H9.83325V10.6913H14.2733C14.082 11.7225 13.5008 12.5963 12.627 13.1813V15.2512H15.2933C16.8533 13.815 17.7533 11.7 17.7533 9.1875Z" fill="white"/>
<path d="M9.83368 17.2509C12.0612 17.2509 13.9287 16.5121 15.2937 15.2521L12.6274 13.1821C11.8887 13.6771 10.9437 13.9696 9.83368 13.9696C7.68493 13.9696 5.86618 12.5184 5.21743 10.5684H2.46118V12.7059C3.81868 15.4021 6.60868 17.2509 9.83368 17.2509Z" fill="white"/>
<path d="M5.217 10.5675C5.052 10.0725 4.95825 9.54373 4.95825 8.99998C4.95825 8.45623 5.052 7.92748 5.217 7.43248V5.29498H2.46075C1.88325 6.44463 1.58274 7.71344 1.58325 8.99998C1.58325 10.3312 1.902 11.5912 2.46075 12.705L5.217 10.5675Z" fill="white"/>
<path d="M9.83368 4.03125C11.0449 4.03125 12.1324 4.4475 12.9874 5.265L15.3537 2.89875C13.9249 1.5675 12.0574 0.75 9.83368 0.75C6.60868 0.75 3.81868 2.59875 2.46118 5.295L5.21743 7.4325C5.86618 5.4825 7.68493 4.03125 9.83368 4.03125Z" fill="white"/>
</svg>
